<svg width="416" height="8" viewBox="0 0 416 8" fill="none" xmlns="http://www.w3.org/2000/svg">
<g clip-path="url(#clip0_331_1347)">
<rect width="416" height="8" fill="white"/>
<rect width="96" height="8" fill="black"/>
<rect x="46" y="6" width="1" height="1" transform="rotate(180 46 6)" fill="white"/>
<rect x="38" y="6" width="1" height="1" transform="rotate(180 38 6)" fill="white"/>
<rect x="47" y="1" width="1" height="1" transform="rotate(180 47 1)" fill="white"/>
<rect x="39" y="1" width="1" height="1" transform="rotate(180 39 1)" fill="white"/>
<rect x="43" y="3" width="1" height="1" transform="rotate(180 43 3)" fill="white"/>
<rect x="35" y="3" width="1" height="1" transform="rotate(180 35 3)" fill="white"/>
<rect x="42" y="7" width="1" height="1" transform="rotate(180 42 7)" fill="white"/>
<rect x="34" y="7" width="1" height="1" transform="rotate(180 34 7)" fill="white"/>
<rect x="96" width="16" height="8" fill="black"/>
<rect x="49" y="2" width="1" height="1" fill="white"/>
<rect x="65" width="1" height="1" fill="white"/>
<rect x="97" width="1" height="1" fill="white"/>
<rect x="98" y="1" width="1" height="1" fill="white"/>
<rect x="96" y="1" width="1" height="1" fill="white"/>
<rect x="100" y="1" width="1" height="1" fill="white"/>
<rect x="104" y="1" width="1" height="1" fill="white"/>
<rect x="108" y="1" width="1" height="1" fill="white"/>
<rect x="98" y="3" width="1" height="1" fill="white"/>
<rect x="100" y="3" width="1" height="1" fill="white"/>
<rect x="104" y="3" width="1" height="1" fill="white"/>
<rect x="108" y="3" width="1" height="1" fill="white"/>
<rect x="98" y="5" width="1" height="1" fill="white"/>
<rect x="96" y="5" width="1" height="1" fill="white"/>
<rect x="100" y="5" width="1" height="1" fill="white"/>
<rect x="104" y="5" width="1" height="1" fill="white"/>
<rect x="108" y="5" width="1" height="1" fill="white"/>
<rect x="98" y="7" width="1" height="1" fill="white"/>
<rect x="100" y="7" width="1" height="1" fill="white"/>
<rect x="104" y="7" width="1" height="1" fill="white"/>
<rect x="108" y="7" width="1" height="1" fill="white"/>
<rect x="53" y="2" width="1" height="1" fill="white"/>
<rect x="69" width="1" height="1" fill="white"/>
<rect x="101" width="1" height="1" fill="white"/>
<rect x="102" y="1" width="1" height="1" fill="white"/>
<rect x="102" y="3" width="1" height="1" fill="white"/>
<rect x="102" y="5" width="1" height="1" fill="white"/>
<rect x="102" y="7" width="1" height="1" fill="white"/>
<rect x="110" y="1" width="1" height="1" fill="white"/>
<rect x="110" y="3" width="1" height="1" fill="white"/>
<rect x="110" y="5" width="1" height="1" fill="white"/>
<rect x="110" y="7" width="1" height="1" fill="white"/>
<rect x="106" y="1" width="1" height="1" fill="white"/>
<rect x="106" y="3" width="1" height="1" fill="white"/>
<rect x="106" y="5" width="1" height="1" fill="white"/>
<rect x="106" y="7" width="1" height="1" fill="white"/>
<rect x="57" y="2" width="1" height="1" fill="white"/>
<rect x="73" width="1" height="1" fill="white"/>
<rect x="105" width="1" height="1" fill="white"/>
<rect x="61" y="2" width="1" height="1" fill="white"/>
<rect x="77" width="1" height="1" fill="white"/>
<rect x="109" width="1" height="1" fill="white"/>
<rect x="49" y="6" width="1" height="1" fill="white"/>
<rect x="65" y="2" width="1" height="1" fill="white"/>
<rect x="97" y="2" width="1" height="1" fill="white"/>
<rect x="96" y="3" width="1" height="1" fill="white"/>
<rect x="53" y="6" width="1" height="1" fill="white"/>
<rect x="69" y="2" width="1" height="1" fill="white"/>
<rect x="101" y="2" width="1" height="1" fill="white"/>
<rect x="57" y="6" width="1" height="1" fill="white"/>
<rect x="73" y="2" width="1" height="1" fill="white"/>
<rect x="105" y="2" width="1" height="1" fill="white"/>
<rect x="61" y="6" width="1" height="1" fill="white"/>
<rect x="77" y="2" width="1" height="1" fill="white"/>
<rect x="109" y="2" width="1" height="1" fill="white"/>
<rect x="65" y="4" width="1" height="1" fill="white"/>
<rect x="97" y="4" width="1" height="1" fill="white"/>
<rect x="65" y="6" width="1" height="1" fill="white"/>
<rect x="97" y="6" width="1" height="1" fill="white"/>
<rect x="96" y="7" width="1" height="1" fill="white"/>
<rect x="69" y="4" width="1" height="1" fill="white"/>
<rect x="101" y="4" width="1" height="1" fill="white"/>
<rect x="73" y="4" width="1" height="1" fill="white"/>
<rect x="105" y="4" width="1" height="1" fill="white"/>
<rect x="77" y="4" width="1" height="1" fill="white"/>
<rect x="109" y="4" width="1" height="1" fill="white"/>
<rect x="69" y="6" width="1" height="1" fill="white"/>
<rect x="101" y="6" width="1" height="1" fill="white"/>
<rect x="73" y="6" width="1" height="1" fill="white"/>
<rect x="105" y="6" width="1" height="1" fill="white"/>
<rect x="77" y="6" width="1" height="1" fill="white"/>
<rect x="109" y="6" width="1" height="1" fill="white"/>
<rect x="51" width="1" height="1" fill="white"/>
<rect x="67" width="1" height="1" fill="white"/>
<rect x="99" width="1" height="1" fill="white"/>
<rect x="55" width="1" height="1" fill="white"/>
<rect x="71" width="1" height="1" fill="white"/>
<rect x="103" width="1" height="1" fill="white"/>
<rect x="59" width="1" height="1" fill="white"/>
<rect x="75" width="1" height="1" fill="white"/>
<rect x="107" width="1" height="1" fill="white"/>
<rect x="63" width="1" height="1" fill="white"/>
<rect x="79" width="1" height="1" fill="white"/>
<rect width="1" height="1" transform="matrix(1 0 0 -1 129 8)" fill="black"/>
<rect x="111" width="1" height="1" fill="white"/>
<rect x="51" y="4" width="1" height="1" fill="white"/>
<rect x="67" y="2" width="1" height="1" fill="white"/>
<rect x="99" y="2" width="1" height="1" fill="white"/>
<rect x="55" y="4" width="1" height="1" fill="white"/>
<rect x="71" y="2" width="1" height="1" fill="white"/>
<rect x="103" y="2" width="1" height="1" fill="white"/>
<rect x="59" y="4" width="1" height="1" fill="white"/>
<rect x="75" y="2" width="1" height="1" fill="white"/>
<rect x="107" y="2" width="1" height="1" fill="white"/>
<rect x="63" y="4" width="1" height="1" fill="white"/>
<rect x="79" y="2" width="1" height="1" fill="white"/>
<rect width="1" height="1" transform="matrix(1 0 0 -1 129 6)" fill="black"/>
<rect x="111" y="2" width="1" height="1" fill="white"/>
<rect x="67" y="4" width="1" height="1" fill="white"/>
<rect x="99" y="4" width="1" height="1" fill="white"/>
<rect x="71" y="4" width="1" height="1" fill="white"/>
<rect x="103" y="4" width="1" height="1" fill="white"/>
<rect x="75" y="4" width="1" height="1" fill="white"/>
<rect x="107" y="4" width="1" height="1" fill="white"/>
<rect x="79" y="4" width="1" height="1" fill="white"/>
<rect width="1" height="1" transform="matrix(1 0 0 -1 129 4)" fill="black"/>
<rect x="111" y="4" width="1" height="1" fill="white"/>
<rect x="67" y="6" width="1" height="1" fill="white"/>
<rect x="99" y="6" width="1" height="1" fill="white"/>
<rect x="71" y="6" width="1" height="1" fill="white"/>
<rect x="103" y="6" width="1" height="1" fill="white"/>
<rect x="75" y="6" width="1" height="1" fill="white"/>
<rect x="107" y="6" width="1" height="1" fill="white"/>
<rect x="79" y="6" width="1" height="1" fill="white"/>
<rect width="1" height="1" transform="matrix(1 0 0 -1 129 2)" fill="black"/>
<rect x="111" y="6" width="1" height="1" fill="white"/>
<rect width="1" height="1" transform="matrix(1 0 0 -1 113 8)" fill="black"/>
<rect width="1" height="1" transform="matrix(1 0 0 -1 112 7)" fill="black"/>
<rect width="1" height="1" transform="matrix(1 0 0 -1 114 5)" fill="black"/>
<rect width="1" height="1" transform="matrix(1 0 0 -1 115 2)" fill="black"/>
<rect width="1" height="1" transform="matrix(1 0 0 -1 114 1)" fill="black"/>
<rect width="1" height="1" transform="matrix(1 0 0 -1 117 8)" fill="black"/>
<rect width="1" height="1" transform="matrix(1 0 0 -1 116 7)" fill="black"/>
<rect width="1" height="1" transform="matrix(1 0 0 -1 122 5)" fill="black"/>
<rect width="1" height="1" transform="matrix(1 0 0 -1 116 3)" fill="black"/>
<rect width="1" height="1" transform="matrix(1 0 0 -1 118 1)" fill="black"/>
<rect width="1" height="1" transform="matrix(1 0 0 -1 124 7)" fill="black"/>
<rect width="1" height="1" transform="matrix(1 0 0 -1 126 5)" fill="black"/>
<rect width="1" height="1" transform="matrix(1 0 0 -1 124 3)" fill="black"/>
<rect width="1" height="1" transform="matrix(1 0 0 -1 126 1)" fill="black"/>
<rect width="1" height="1" transform="matrix(1 0 0 -1 120 7)" fill="black"/>
<rect width="1" height="1" transform="matrix(1 0 0 -1 118 5)" fill="black"/>
<rect width="1" height="1" transform="matrix(1 0 0 -1 120 3)" fill="black"/>
<rect width="1" height="1" transform="matrix(1 0 0 -1 122 1)" fill="black"/>
<rect width="1" height="1" transform="matrix(1 0 0 -1 121 8)" fill="black"/>
<rect width="1" height="1" transform="matrix(1 0 0 -1 125 8)" fill="black"/>
<rect width="1" height="1" transform="matrix(1 0 0 -1 113 6)" fill="black"/>
<rect width="1" height="1" transform="matrix(1 0 0 -1 117 6)" fill="black"/>
<rect width="1" height="1" transform="matrix(1 0 0 -1 121 6)" fill="black"/>
<rect width="1" height="1" transform="matrix(1 0 0 -1 125 6)" fill="black"/>
<rect width="1" height="1" transform="matrix(1 0 0 -1 113 4)" fill="black"/>
<rect width="1" height="1" transform="matrix(1 0 0 -1 112 3)" fill="black"/>
<rect width="1" height="1" transform="matrix(1 0 0 -1 117 4)" fill="black"/>
<rect width="1" height="1" transform="matrix(1 0 0 -1 121 4)" fill="black"/>
<rect width="1" height="1" transform="matrix(1 0 0 -1 125 4)" fill="black"/>
<rect width="1" height="1" transform="matrix(1 0 0 -1 117 2)" fill="black"/>
<rect width="1" height="1" transform="matrix(1 0 0 -1 121 2)" fill="black"/>
<rect width="1" height="1" transform="matrix(1 0 0 -1 125 2)" fill="black"/>
<rect width="1" height="1" transform="matrix(1 0 0 -1 115 8)" fill="black"/>
<rect width="1" height="1" transform="matrix(1 0 0 -1 119 8)" fill="black"/>
<rect width="1" height="1" transform="matrix(1 0 0 -1 123 8)" fill="black"/>
<rect width="1" height="1" transform="matrix(1 0 0 -1 127 8)" fill="black"/>
<rect width="1" height="1" transform="matrix(1 0 0 -1 115 6)" fill="black"/>
<rect width="1" height="1" transform="matrix(1 0 0 -1 119 6)" fill="black"/>
<rect width="1" height="1" transform="matrix(1 0 0 -1 123 6)" fill="black"/>
<rect width="1" height="1" transform="matrix(1 0 0 -1 127 6)" fill="black"/>
<rect width="1" height="1" transform="matrix(1 0 0 -1 115 4)" fill="black"/>
<rect width="1" height="1" transform="matrix(1 0 0 -1 119 4)" fill="black"/>
<rect width="1" height="1" transform="matrix(1 0 0 -1 123 4)" fill="black"/>
<rect width="1" height="1" transform="matrix(1 0 0 -1 127 4)" fill="black"/>
<rect width="1" height="1" transform="matrix(1 0 0 -1 113 2)" fill="black"/>
<rect width="1" height="1" transform="matrix(1 0 0 -1 119 2)" fill="black"/>
<rect width="1" height="1" transform="matrix(1 0 0 -1 123 2)" fill="black"/>
<rect width="1" height="1" transform="matrix(1 0 0 -1 127 2)" fill="black"/>
<rect x="81" width="1" height="1" fill="white"/>
<rect x="84" y="1" width="1" height="1" fill="white"/>
<rect x="86" y="3" width="1" height="1" fill="white"/>
<rect x="84" y="5" width="1" height="1" fill="white"/>
<rect x="82" y="7" width="1" height="1" fill="white"/>
<rect x="82" y="3" width="1" height="1" fill="white"/>
<rect x="85" width="1" height="1" fill="white"/>
<rect x="88" y="1" width="1" height="1" fill="white"/>
<rect x="88" y="5" width="1" height="1" fill="white"/>
<rect x="86" y="7" width="1" height="1" fill="white"/>
<rect x="90" y="7" width="1" height="1" fill="white"/>
<rect x="92" y="1" width="1" height="1" fill="white"/>
<rect x="94" y="3" width="1" height="1" fill="white"/>
<rect x="90" y="3" width="1" height="1" fill="white"/>
<rect x="92" y="5" width="1" height="1" fill="white"/>
<rect x="94" y="7" width="1" height="1" fill="white"/>
<rect x="89" width="1" height="1" fill="white"/>
<rect x="93" width="1" height="1" fill="white"/>
<rect x="81" y="2" width="1" height="1" fill="white"/>
<rect x="85" y="2" width="1" height="1" fill="white"/>
<rect x="89" y="2" width="1" height="1" fill="white"/>
<rect x="93" y="2" width="1" height="1" fill="white"/>
<rect x="81" y="4" width="1" height="1" fill="white"/>
<rect x="81" y="6" width="1" height="1" fill="white"/>
<rect x="85" y="4" width="1" height="1" fill="white"/>
<rect x="89" y="4" width="1" height="1" fill="white"/>
<rect x="93" y="4" width="1" height="1" fill="white"/>
<rect x="85" y="6" width="1" height="1" fill="white"/>
<rect x="89" y="6" width="1" height="1" fill="white"/>
<rect x="93" y="6" width="1" height="1" fill="white"/>
<rect x="83" width="1" height="1" fill="white"/>
<rect x="87" width="1" height="1" fill="white"/>
<rect x="91" width="1" height="1" fill="white"/>
<rect x="95" width="1" height="1" fill="white"/>
<rect x="83" y="2" width="1" height="1" fill="white"/>
<rect x="87" y="2" width="1" height="1" fill="white"/>
<rect x="91" y="2" width="1" height="1" fill="white"/>
<rect x="95" y="2" width="1" height="1" fill="white"/>
<rect x="83" y="4" width="1" height="1" fill="white"/>
<rect x="87" y="4" width="1" height="1" fill="white"/>
<rect x="91" y="4" width="1" height="1" fill="white"/>
<rect x="95" y="4" width="1" height="1" fill="white"/>
<rect x="83" y="6" width="1" height="1" fill="white"/>
<rect x="87" y="6" width="1" height="1" fill="white"/>
<rect x="91" y="6" width="1" height="1" fill="white"/>
<rect x="95" y="6" width="1" height="1" fill="white"/>
<rect width="1" height="1" transform="matrix(1 0 0 -1 131 8)" fill="black"/>
<rect width="1" height="1" transform="matrix(1 0 0 -1 135 8)" fill="black"/>
<rect width="1" height="1" transform="matrix(1 0 0 -1 139 8)" fill="black"/>
<rect width="1" height="1" transform="matrix(1 0 0 -1 143 8)" fill="black"/>
<rect width="1" height="1" transform="matrix(1 0 0 -1 131 6)" fill="black"/>
<rect width="1" height="1" transform="matrix(1 0 0 -1 135 6)" fill="black"/>
<rect width="1" height="1" transform="matrix(1 0 0 -1 139 6)" fill="black"/>
<rect width="1" height="1" transform="matrix(1 0 0 -1 143 6)" fill="black"/>
<rect width="1" height="1" transform="matrix(1 0 0 -1 131 4)" fill="black"/>
<rect width="1" height="1" transform="matrix(1 0 0 -1 131 2)" fill="black"/>
<rect width="1" height="1" transform="matrix(1 0 0 -1 135 4)" fill="black"/>
<rect width="1" height="1" transform="matrix(1 0 0 -1 139 4)" fill="black"/>
<rect width="1" height="1" transform="matrix(1 0 0 -1 143 4)" fill="black"/>
<rect width="1" height="1" transform="matrix(1 0 0 -1 135 2)" fill="black"/>
<rect width="1" height="1" transform="matrix(1 0 0 -1 139 2)" fill="black"/>
<rect width="1" height="1" transform="matrix(1 0 0 -1 143 2)" fill="black"/>
<rect width="1" height="1" transform="matrix(1 0 0 -1 133 8)" fill="black"/>
<rect width="1" height="1" transform="matrix(1 0 0 -1 137 8)" fill="black"/>
<rect width="1" height="1" transform="matrix(1 0 0 -1 141 8)" fill="black"/>
<rect width="1" height="1" transform="matrix(1 0 0 -1 147 8)" fill="black"/>
<rect width="1" height="1" transform="matrix(1 0 0 -1 151 8)" fill="black"/>
<rect width="1" height="1" transform="matrix(1 0 0 -1 155 8)" fill="black"/>
<rect width="1" height="1" transform="matrix(1 0 0 -1 159 8)" fill="black"/>
<rect width="1" height="1" transform="matrix(1 0 0 -1 133 6)" fill="black"/>
<rect width="1" height="1" transform="matrix(1 0 0 -1 137 6)" fill="black"/>
<rect width="1" height="1" transform="matrix(1 0 0 -1 141 6)" fill="black"/>
<rect width="1" height="1" transform="matrix(1 0 0 -1 145 6)" fill="black"/>
<rect width="1" height="1" transform="matrix(1 0 0 -1 162 6)" fill="black"/>
<rect width="1" height="1" transform="matrix(1 0 0 -1 170 6)" fill="black"/>
<rect width="1" height="1" transform="matrix(1 0 0 -1 133 4)" fill="black"/>
<rect width="1" height="1" transform="matrix(1 0 0 -1 137 4)" fill="black"/>
<rect width="1" height="1" transform="matrix(1 0 0 -1 141 4)" fill="black"/>
<rect width="1" height="1" transform="matrix(1 0 0 -1 149 6)" fill="black"/>
<rect width="1" height="1" transform="matrix(1 0 0 -1 153 6)" fill="black"/>
<rect width="1" height="1" transform="matrix(1 0 0 -1 157 6)" fill="black"/>
<rect width="1" height="1" transform="matrix(1 0 0 -1 147 4)" fill="black"/>
<rect width="1" height="1" transform="matrix(1 0 0 -1 161 2)" fill="black"/>
<rect width="1" height="1" transform="matrix(1 0 0 -1 169 2)" fill="black"/>
<rect width="1" height="1" transform="matrix(1 0 0 -1 151 4)" fill="black"/>
<rect width="1" height="1" transform="matrix(1 0 0 -1 155 4)" fill="black"/>
<rect width="1" height="1" transform="matrix(1 0 0 -1 165 3)" fill="black"/>
<rect width="1" height="1" transform="matrix(1 0 0 -1 173 3)" fill="black"/>
<rect width="1" height="1" transform="matrix(1 0 0 -1 166 8)" fill="black"/>
<rect width="1" height="1" transform="matrix(1 0 0 -1 174 8)" fill="black"/>
<rect width="1" height="1" transform="matrix(1 0 0 -1 159 4)" fill="black"/>
<rect width="1" height="1" transform="matrix(1 0 0 -1 133 2)" fill="black"/>
<rect width="1" height="1" transform="matrix(1 0 0 -1 137 2)" fill="black"/>
<rect width="1" height="1" transform="matrix(1 0 0 -1 141 2)" fill="black"/>
<rect width="1" height="1" transform="matrix(1 0 0 -1 145 2)" fill="black"/>
<rect width="1" height="1" transform="matrix(1 0 0 -1 149 2)" fill="black"/>
<rect width="1" height="1" transform="matrix(1 0 0 -1 153 2)" fill="black"/>
<rect width="1" height="1" transform="matrix(1 0 0 -1 157 2)" fill="black"/>
<rect x="416" y="8" width="96" height="8" transform="rotate(180 416 8)" fill="black"/>
<rect x="370" y="2" width="1" height="1" fill="white"/>
<rect x="378" y="2" width="1" height="1" fill="white"/>
<rect x="369" y="7" width="1" height="1" fill="white"/>
<rect x="377" y="7" width="1" height="1" fill="white"/>
<rect x="373" y="5" width="1" height="1" fill="white"/>
<rect x="381" y="5" width="1" height="1" fill="white"/>
<rect x="374" y="1" width="1" height="1" fill="white"/>
<rect x="382" y="1" width="1" height="1" fill="white"/>
<rect x="320" y="8" width="16" height="8" transform="rotate(180 320 8)" fill="black"/>
<rect x="367" y="6" width="1" height="1" transform="rotate(180 367 6)" fill="white"/>
<rect x="351" y="8" width="1" height="1" transform="rotate(180 351 8)" fill="white"/>
<rect x="319" y="8" width="1" height="1" transform="rotate(180 319 8)" fill="white"/>
<rect x="318" y="7" width="1" height="1" transform="rotate(180 318 7)" fill="white"/>
<rect x="320" y="7" width="1" height="1" transform="rotate(180 320 7)" fill="white"/>
<rect x="316" y="7" width="1" height="1" transform="rotate(180 316 7)" fill="white"/>
<rect x="312" y="7" width="1" height="1" transform="rotate(180 312 7)" fill="white"/>
<rect x="308" y="7" width="1" height="1" transform="rotate(180 308 7)" fill="white"/>
<rect x="318" y="5" width="1" height="1" transform="rotate(180 318 5)" fill="white"/>
<rect x="316" y="5" width="1" height="1" transform="rotate(180 316 5)" fill="white"/>
<rect x="312" y="5" width="1" height="1" transform="rotate(180 312 5)" fill="white"/>
<rect x="308" y="5" width="1" height="1" transform="rotate(180 308 5)" fill="white"/>
<rect x="318" y="3" width="1" height="1" transform="rotate(180 318 3)" fill="white"/>
<rect x="320" y="3" width="1" height="1" transform="rotate(180 320 3)" fill="white"/>
<rect x="316" y="3" width="1" height="1" transform="rotate(180 316 3)" fill="white"/>
<rect x="312" y="3" width="1" height="1" transform="rotate(180 312 3)" fill="white"/>
<rect x="308" y="3" width="1" height="1" transform="rotate(180 308 3)" fill="white"/>
<rect x="318" y="1" width="1" height="1" transform="rotate(180 318 1)" fill="white"/>
<rect x="316" y="1" width="1" height="1" transform="rotate(180 316 1)" fill="white"/>
<rect x="312" y="1" width="1" height="1" transform="rotate(180 312 1)" fill="white"/>
<rect x="308" y="1" width="1" height="1" transform="rotate(180 308 1)" fill="white"/>
<rect x="363" y="6" width="1" height="1" transform="rotate(180 363 6)" fill="white"/>
<rect x="347" y="8" width="1" height="1" transform="rotate(180 347 8)" fill="white"/>
<rect x="315" y="8" width="1" height="1" transform="rotate(180 315 8)" fill="white"/>
<rect x="314" y="7" width="1" height="1" transform="rotate(180 314 7)" fill="white"/>
<rect x="314" y="5" width="1" height="1" transform="rotate(180 314 5)" fill="white"/>
<rect x="314" y="3" width="1" height="1" transform="rotate(180 314 3)" fill="white"/>
<rect x="314" y="1" width="1" height="1" transform="rotate(180 314 1)" fill="white"/>
<rect x="306" y="7" width="1" height="1" transform="rotate(180 306 7)" fill="white"/>
<rect x="306" y="5" width="1" height="1" transform="rotate(180 306 5)" fill="white"/>
<rect x="306" y="3" width="1" height="1" transform="rotate(180 306 3)" fill="white"/>
<rect x="306" y="1" width="1" height="1" transform="rotate(180 306 1)" fill="white"/>
<rect x="310" y="7" width="1" height="1" transform="rotate(180 310 7)" fill="white"/>
<rect x="310" y="5" width="1" height="1" transform="rotate(180 310 5)" fill="white"/>
<rect x="310" y="3" width="1" height="1" transform="rotate(180 310 3)" fill="white"/>
<rect x="310" y="1" width="1" height="1" transform="rotate(180 310 1)" fill="white"/>
<rect x="359" y="6" width="1" height="1" transform="rotate(180 359 6)" fill="white"/>
<rect x="343" y="8" width="1" height="1" transform="rotate(180 343 8)" fill="white"/>
<rect x="311" y="8" width="1" height="1" transform="rotate(180 311 8)" fill="white"/>
<rect x="355" y="6" width="1" height="1" transform="rotate(180 355 6)" fill="white"/>
<rect x="339" y="8" width="1" height="1" transform="rotate(180 339 8)" fill="white"/>
<rect x="307" y="8" width="1" height="1" transform="rotate(180 307 8)" fill="white"/>
<rect x="367" y="2" width="1" height="1" transform="rotate(180 367 2)" fill="white"/>
<rect x="351" y="6" width="1" height="1" transform="rotate(180 351 6)" fill="white"/>
<rect x="319" y="6" width="1" height="1" transform="rotate(180 319 6)" fill="white"/>
<rect x="320" y="5" width="1" height="1" transform="rotate(180 320 5)" fill="white"/>
<rect x="363" y="2" width="1" height="1" transform="rotate(180 363 2)" fill="white"/>
<rect x="347" y="6" width="1" height="1" transform="rotate(180 347 6)" fill="white"/>
<rect x="315" y="6" width="1" height="1" transform="rotate(180 315 6)" fill="white"/>
<rect x="359" y="2" width="1" height="1" transform="rotate(180 359 2)" fill="white"/>
<rect x="343" y="6" width="1" height="1" transform="rotate(180 343 6)" fill="white"/>
<rect x="311" y="6" width="1" height="1" transform="rotate(180 311 6)" fill="white"/>
<rect x="355" y="2" width="1" height="1" transform="rotate(180 355 2)" fill="white"/>
<rect x="339" y="6" width="1" height="1" transform="rotate(180 339 6)" fill="white"/>
<rect x="307" y="6" width="1" height="1" transform="rotate(180 307 6)" fill="white"/>
<rect x="351" y="4" width="1" height="1" transform="rotate(180 351 4)" fill="white"/>
<rect x="319" y="4" width="1" height="1" transform="rotate(180 319 4)" fill="white"/>
<rect x="351" y="2" width="1" height="1" transform="rotate(180 351 2)" fill="white"/>
<rect x="319" y="2" width="1" height="1" transform="rotate(180 319 2)" fill="white"/>
<rect x="320" y="1" width="1" height="1" transform="rotate(180 320 1)" fill="white"/>
<rect x="347" y="4" width="1" height="1" transform="rotate(180 347 4)" fill="white"/>
<rect x="315" y="4" width="1" height="1" transform="rotate(180 315 4)" fill="white"/>
<rect x="343" y="4" width="1" height="1" transform="rotate(180 343 4)" fill="white"/>
<rect x="311" y="4" width="1" height="1" transform="rotate(180 311 4)" fill="white"/>
<rect x="339" y="4" width="1" height="1" transform="rotate(180 339 4)" fill="white"/>
<rect x="307" y="4" width="1" height="1" transform="rotate(180 307 4)" fill="white"/>
<rect x="347" y="2" width="1" height="1" transform="rotate(180 347 2)" fill="white"/>
<rect x="315" y="2" width="1" height="1" transform="rotate(180 315 2)" fill="white"/>
<rect x="343" y="2" width="1" height="1" transform="rotate(180 343 2)" fill="white"/>
<rect x="311" y="2" width="1" height="1" transform="rotate(180 311 2)" fill="white"/>
<rect x="339" y="2" width="1" height="1" transform="rotate(180 339 2)" fill="white"/>
<rect x="307" y="2" width="1" height="1" transform="rotate(180 307 2)" fill="white"/>
<rect x="365" y="8" width="1" height="1" transform="rotate(180 365 8)" fill="white"/>
<rect x="349" y="8" width="1" height="1" transform="rotate(180 349 8)" fill="white"/>
<rect x="317" y="8" width="1" height="1" transform="rotate(180 317 8)" fill="white"/>
<rect x="361" y="8" width="1" height="1" transform="rotate(180 361 8)" fill="white"/>
<rect x="345" y="8" width="1" height="1" transform="rotate(180 345 8)" fill="white"/>
<rect x="313" y="8" width="1" height="1" transform="rotate(180 313 8)" fill="white"/>
<rect x="357" y="8" width="1" height="1" transform="rotate(180 357 8)" fill="white"/>
<rect x="341" y="8" width="1" height="1" transform="rotate(180 341 8)" fill="white"/>
<rect x="309" y="8" width="1" height="1" transform="rotate(180 309 8)" fill="white"/>
<rect x="353" y="8" width="1" height="1" transform="rotate(180 353 8)" fill="white"/>
<rect x="337" y="8" width="1" height="1" transform="rotate(180 337 8)" fill="white"/>
<rect width="1" height="1" transform="matrix(-1 0 0 1 287 0)" fill="black"/>
<rect x="305" y="8" width="1" height="1" transform="rotate(180 305 8)" fill="white"/>
<rect x="365" y="4" width="1" height="1" transform="rotate(180 365 4)" fill="white"/>
<rect x="349" y="6" width="1" height="1" transform="rotate(180 349 6)" fill="white"/>
<rect x="317" y="6" width="1" height="1" transform="rotate(180 317 6)" fill="white"/>
<rect x="361" y="4" width="1" height="1" transform="rotate(180 361 4)" fill="white"/>
<rect x="345" y="6" width="1" height="1" transform="rotate(180 345 6)" fill="white"/>
<rect x="313" y="6" width="1" height="1" transform="rotate(180 313 6)" fill="white"/>
<rect x="357" y="4" width="1" height="1" transform="rotate(180 357 4)" fill="white"/>
<rect x="341" y="6" width="1" height="1" transform="rotate(180 341 6)" fill="white"/>
<rect x="309" y="6" width="1" height="1" transform="rotate(180 309 6)" fill="white"/>
<rect x="353" y="4" width="1" height="1" transform="rotate(180 353 4)" fill="white"/>
<rect x="337" y="6" width="1" height="1" transform="rotate(180 337 6)" fill="white"/>
<rect width="1" height="1" transform="matrix(-1 0 0 1 287 2)" fill="black"/>
<rect x="305" y="6" width="1" height="1" transform="rotate(180 305 6)" fill="white"/>
<rect x="349" y="4" width="1" height="1" transform="rotate(180 349 4)" fill="white"/>
<rect x="317" y="4" width="1" height="1" transform="rotate(180 317 4)" fill="white"/>
<rect x="345" y="4" width="1" height="1" transform="rotate(180 345 4)" fill="white"/>
<rect x="313" y="4" width="1" height="1" transform="rotate(180 313 4)" fill="white"/>
<rect x="341" y="4" width="1" height="1" transform="rotate(180 341 4)" fill="white"/>
<rect x="309" y="4" width="1" height="1" transform="rotate(180 309 4)" fill="white"/>
<rect x="337" y="4" width="1" height="1" transform="rotate(180 337 4)" fill="white"/>
<rect width="1" height="1" transform="matrix(-1 0 0 1 287 4)" fill="black"/>
<rect x="305" y="4" width="1" height="1" transform="rotate(180 305 4)" fill="white"/>
<rect x="349" y="2" width="1" height="1" transform="rotate(180 349 2)" fill="white"/>
<rect x="317" y="2" width="1" height="1" transform="rotate(180 317 2)" fill="white"/>
<rect x="345" y="2" width="1" height="1" transform="rotate(180 345 2)" fill="white"/>
<rect x="313" y="2" width="1" height="1" transform="rotate(180 313 2)" fill="white"/>
<rect x="341" y="2" width="1" height="1" transform="rotate(180 341 2)" fill="white"/>
<rect x="309" y="2" width="1" height="1" transform="rotate(180 309 2)" fill="white"/>
<rect x="337" y="2" width="1" height="1" transform="rotate(180 337 2)" fill="white"/>
<rect width="1" height="1" transform="matrix(-1 0 0 1 287 6)" fill="black"/>
<rect x="305" y="2" width="1" height="1" transform="rotate(180 305 2)" fill="white"/>
<rect width="1" height="1" transform="matrix(-1 0 0 1 303 0)" fill="black"/>
<rect width="1" height="1" transform="matrix(-1 0 0 1 304 1)" fill="black"/>
<rect width="1" height="1" transform="matrix(-1 0 0 1 302 3)" fill="black"/>
<rect width="1" height="1" transform="matrix(-1 0 0 1 301 6)" fill="black"/>
<rect width="1" height="1" transform="matrix(-1 0 0 1 302 7)" fill="black"/>
<rect width="1" height="1" transform="matrix(-1 0 0 1 299 0)" fill="black"/>
<rect width="1" height="1" transform="matrix(-1 0 0 1 300 1)" fill="black"/>
<rect width="1" height="1" transform="matrix(-1 0 0 1 294 3)" fill="black"/>
<rect width="1" height="1" transform="matrix(-1 0 0 1 300 5)" fill="black"/>
<rect width="1" height="1" transform="matrix(-1 0 0 1 298 7)" fill="black"/>
<rect width="1" height="1" transform="matrix(-1 0 0 1 292 1)" fill="black"/>
<rect width="1" height="1" transform="matrix(-1 0 0 1 290 3)" fill="black"/>
<rect width="1" height="1" transform="matrix(-1 0 0 1 292 5)" fill="black"/>
<rect width="1" height="1" transform="matrix(-1 0 0 1 290 7)" fill="black"/>
<rect width="1" height="1" transform="matrix(-1 0 0 1 296 1)" fill="black"/>
<rect width="1" height="1" transform="matrix(-1 0 0 1 298 3)" fill="black"/>
<rect width="1" height="1" transform="matrix(-1 0 0 1 296 5)" fill="black"/>
<rect width="1" height="1" transform="matrix(-1 0 0 1 294 7)" fill="black"/>
<rect width="1" height="1" transform="matrix(-1 0 0 1 295 0)" fill="black"/>
<rect width="1" height="1" transform="matrix(-1 0 0 1 291 0)" fill="black"/>
<rect width="1" height="1" transform="matrix(-1 0 0 1 303 2)" fill="black"/>
<rect width="1" height="1" transform="matrix(-1 0 0 1 299 2)" fill="black"/>
<rect width="1" height="1" transform="matrix(-1 0 0 1 295 2)" fill="black"/>
<rect width="1" height="1" transform="matrix(-1 0 0 1 291 2)" fill="black"/>
<rect width="1" height="1" transform="matrix(-1 0 0 1 303 4)" fill="black"/>
<rect width="1" height="1" transform="matrix(-1 0 0 1 304 5)" fill="black"/>
<rect width="1" height="1" transform="matrix(-1 0 0 1 299 4)" fill="black"/>
<rect width="1" height="1" transform="matrix(-1 0 0 1 295 4)" fill="black"/>
<rect width="1" height="1" transform="matrix(-1 0 0 1 291 4)" fill="black"/>
<rect width="1" height="1" transform="matrix(-1 0 0 1 299 6)" fill="black"/>
<rect width="1" height="1" transform="matrix(-1 0 0 1 295 6)" fill="black"/>
<rect width="1" height="1" transform="matrix(-1 0 0 1 291 6)" fill="black"/>
<rect width="1" height="1" transform="matrix(-1 0 0 1 301 0)" fill="black"/>
<rect width="1" height="1" transform="matrix(-1 0 0 1 297 0)" fill="black"/>
<rect width="1" height="1" transform="matrix(-1 0 0 1 293 0)" fill="black"/>
<rect width="1" height="1" transform="matrix(-1 0 0 1 289 0)" fill="black"/>
<rect width="1" height="1" transform="matrix(-1 0 0 1 301 2)" fill="black"/>
<rect width="1" height="1" transform="matrix(-1 0 0 1 297 2)" fill="black"/>
<rect width="1" height="1" transform="matrix(-1 0 0 1 293 2)" fill="black"/>
<rect width="1" height="1" transform="matrix(-1 0 0 1 289 2)" fill="black"/>
<rect width="1" height="1" transform="matrix(-1 0 0 1 301 4)" fill="black"/>
<rect width="1" height="1" transform="matrix(-1 0 0 1 297 4)" fill="black"/>
<rect width="1" height="1" transform="matrix(-1 0 0 1 293 4)" fill="black"/>
<rect width="1" height="1" transform="matrix(-1 0 0 1 289 4)" fill="black"/>
<rect width="1" height="1" transform="matrix(-1 0 0 1 303 6)" fill="black"/>
<rect width="1" height="1" transform="matrix(-1 0 0 1 297 6)" fill="black"/>
<rect width="1" height="1" transform="matrix(-1 0 0 1 293 6)" fill="black"/>
<rect width="1" height="1" transform="matrix(-1 0 0 1 289 6)" fill="black"/>
<rect x="335" y="8" width="1" height="1" transform="rotate(180 335 8)" fill="white"/>
<rect x="332" y="7" width="1" height="1" transform="rotate(180 332 7)" fill="white"/>
<rect x="330" y="5" width="1" height="1" transform="rotate(180 330 5)" fill="white"/>
<rect x="332" y="3" width="1" height="1" transform="rotate(180 332 3)" fill="white"/>
<rect x="334" y="1" width="1" height="1" transform="rotate(180 334 1)" fill="white"/>
<rect x="334" y="5" width="1" height="1" transform="rotate(180 334 5)" fill="white"/>
<rect x="331" y="8" width="1" height="1" transform="rotate(180 331 8)" fill="white"/>
<rect x="328" y="7" width="1" height="1" transform="rotate(180 328 7)" fill="white"/>
<rect x="328" y="3" width="1" height="1" transform="rotate(180 328 3)" fill="white"/>
<rect x="330" y="1" width="1" height="1" transform="rotate(180 330 1)" fill="white"/>
<rect x="326" y="1" width="1" height="1" transform="rotate(180 326 1)" fill="white"/>
<rect x="324" y="7" width="1" height="1" transform="rotate(180 324 7)" fill="white"/>
<rect x="322" y="5" width="1" height="1" transform="rotate(180 322 5)" fill="white"/>
<rect x="326" y="5" width="1" height="1" transform="rotate(180 326 5)" fill="white"/>
<rect x="324" y="3" width="1" height="1" transform="rotate(180 324 3)" fill="white"/>
<rect x="322" y="1" width="1" height="1" transform="rotate(180 322 1)" fill="white"/>
<rect x="327" y="8" width="1" height="1" transform="rotate(180 327 8)" fill="white"/>
<rect x="323" y="8" width="1" height="1" transform="rotate(180 323 8)" fill="white"/>
<rect x="335" y="6" width="1" height="1" transform="rotate(180 335 6)" fill="white"/>
<rect x="331" y="6" width="1" height="1" transform="rotate(180 331 6)" fill="white"/>
<rect x="327" y="6" width="1" height="1" transform="rotate(180 327 6)" fill="white"/>
<rect x="323" y="6" width="1" height="1" transform="rotate(180 323 6)" fill="white"/>
<rect x="335" y="4" width="1" height="1" transform="rotate(180 335 4)" fill="white"/>
<rect x="335" y="2" width="1" height="1" transform="rotate(180 335 2)" fill="white"/>
<rect x="331" y="4" width="1" height="1" transform="rotate(180 331 4)" fill="white"/>
<rect x="327" y="4" width="1" height="1" transform="rotate(180 327 4)" fill="white"/>
<rect x="323" y="4" width="1" height="1" transform="rotate(180 323 4)" fill="white"/>
<rect x="331" y="2" width="1" height="1" transform="rotate(180 331 2)" fill="white"/>
<rect x="327" y="2" width="1" height="1" transform="rotate(180 327 2)" fill="white"/>
<rect x="323" y="2" width="1" height="1" transform="rotate(180 323 2)" fill="white"/>
<rect x="333" y="8" width="1" height="1" transform="rotate(180 333 8)" fill="white"/>
<rect x="329" y="8" width="1" height="1" transform="rotate(180 329 8)" fill="white"/>
<rect x="325" y="8" width="1" height="1" transform="rotate(180 325 8)" fill="white"/>
<rect x="321" y="8" width="1" height="1" transform="rotate(180 321 8)" fill="white"/>
<rect x="333" y="6" width="1" height="1" transform="rotate(180 333 6)" fill="white"/>
<rect x="329" y="6" width="1" height="1" transform="rotate(180 329 6)" fill="white"/>
<rect x="325" y="6" width="1" height="1" transform="rotate(180 325 6)" fill="white"/>
<rect x="321" y="6" width="1" height="1" transform="rotate(180 321 6)" fill="white"/>
<rect x="333" y="4" width="1" height="1" transform="rotate(180 333 4)" fill="white"/>
<rect x="329" y="4" width="1" height="1" transform="rotate(180 329 4)" fill="white"/>
<rect x="325" y="4" width="1" height="1" transform="rotate(180 325 4)" fill="white"/>
<rect x="321" y="4" width="1" height="1" transform="rotate(180 321 4)" fill="white"/>
<rect x="333" y="2" width="1" height="1" transform="rotate(180 333 2)" fill="white"/>
<rect x="329" y="2" width="1" height="1" transform="rotate(180 329 2)" fill="white"/>
<rect x="325" y="2" width="1" height="1" transform="rotate(180 325 2)" fill="white"/>
<rect x="321" y="2" width="1" height="1" transform="rotate(180 321 2)" fill="white"/>
<rect width="1" height="1" transform="matrix(-1 0 0 1 285 0)" fill="black"/>
<rect width="1" height="1" transform="matrix(-1 0 0 1 281 0)" fill="black"/>
<rect width="1" height="1" transform="matrix(-1 0 0 1 277 0)" fill="black"/>
<rect width="1" height="1" transform="matrix(-1 0 0 1 273 0)" fill="black"/>
<rect width="1" height="1" transform="matrix(-1 0 0 1 285 2)" fill="black"/>
<rect width="1" height="1" transform="matrix(-1 0 0 1 281 2)" fill="black"/>
<rect width="1" height="1" transform="matrix(-1 0 0 1 277 2)" fill="black"/>
<rect width="1" height="1" transform="matrix(-1 0 0 1 273 2)" fill="black"/>
<rect width="1" height="1" transform="matrix(-1 0 0 1 285 4)" fill="black"/>
<rect width="1" height="1" transform="matrix(-1 0 0 1 285 6)" fill="black"/>
<rect width="1" height="1" transform="matrix(-1 0 0 1 281 4)" fill="black"/>
<rect width="1" height="1" transform="matrix(-1 0 0 1 277 4)" fill="black"/>
<rect width="1" height="1" transform="matrix(-1 0 0 1 273 4)" fill="black"/>
<rect width="1" height="1" transform="matrix(-1 0 0 1 281 6)" fill="black"/>
<rect width="1" height="1" transform="matrix(-1 0 0 1 277 6)" fill="black"/>
<rect width="1" height="1" transform="matrix(-1 0 0 1 273 6)" fill="black"/>
<rect width="1" height="1" transform="matrix(-1 0 0 1 283 0)" fill="black"/>
<rect width="1" height="1" transform="matrix(-1 0 0 1 279 0)" fill="black"/>
<rect width="1" height="1" transform="matrix(-1 0 0 1 275 0)" fill="black"/>
<rect width="1" height="1" transform="matrix(-1 0 0 1 269 0)" fill="black"/>
<rect width="1" height="1" transform="matrix(-1 0 0 1 265 0)" fill="black"/>
<rect width="1" height="1" transform="matrix(-1 0 0 1 261 0)" fill="black"/>
<rect width="1" height="1" transform="matrix(-1 0 0 1 257 0)" fill="black"/>
<rect width="1" height="1" transform="matrix(-1 0 0 1 283 2)" fill="black"/>
<rect width="1" height="1" transform="matrix(-1 0 0 1 279 2)" fill="black"/>
<rect width="1" height="1" transform="matrix(-1 0 0 1 275 2)" fill="black"/>
<rect width="1" height="1" transform="matrix(-1 0 0 1 271 2)" fill="black"/>
<rect width="1" height="1" transform="matrix(-1 0 0 1 254 2)" fill="black"/>
<rect width="1" height="1" transform="matrix(-1 0 0 1 246 2)" fill="black"/>
<rect width="1" height="1" transform="matrix(-1 0 0 1 283 4)" fill="black"/>
<rect width="1" height="1" transform="matrix(-1 0 0 1 279 4)" fill="black"/>
<rect width="1" height="1" transform="matrix(-1 0 0 1 275 4)" fill="black"/>
<rect width="1" height="1" transform="matrix(-1 0 0 1 267 2)" fill="black"/>
<rect width="1" height="1" transform="matrix(-1 0 0 1 263 2)" fill="black"/>
<rect width="1" height="1" transform="matrix(-1 0 0 1 259 2)" fill="black"/>
<rect width="1" height="1" transform="matrix(-1 0 0 1 269 4)" fill="black"/>
<rect width="1" height="1" transform="matrix(-1 0 0 1 255 6)" fill="black"/>
<rect width="1" height="1" transform="matrix(-1 0 0 1 247 6)" fill="black"/>
<rect width="1" height="1" transform="matrix(-1 0 0 1 265 4)" fill="black"/>
<rect width="1" height="1" transform="matrix(-1 0 0 1 261 4)" fill="black"/>
<rect width="1" height="1" transform="matrix(-1 0 0 1 251 5)" fill="black"/>
<rect width="1" height="1" transform="matrix(-1 0 0 1 243 5)" fill="black"/>
<rect width="1" height="1" transform="matrix(-1 0 0 1 250 0)" fill="black"/>
<rect width="1" height="1" transform="matrix(-1 0 0 1 242 0)" fill="black"/>
<rect width="1" height="1" transform="matrix(-1 0 0 1 257 4)" fill="black"/>
<rect width="1" height="1" transform="matrix(-1 0 0 1 283 6)" fill="black"/>
<rect width="1" height="1" transform="matrix(-1 0 0 1 279 6)" fill="black"/>
<rect width="1" height="1" transform="matrix(-1 0 0 1 275 6)" fill="black"/>
<rect width="1" height="1" transform="matrix(-1 0 0 1 271 6)" fill="black"/>
<rect width="1" height="1" transform="matrix(-1 0 0 1 267 6)" fill="black"/>
<rect width="1" height="1" transform="matrix(-1 0 0 1 263 6)" fill="black"/>
<rect width="1" height="1" transform="matrix(-1 0 0 1 259 6)" fill="black"/>
</g>
<defs>
<clipPath id="clip0_331_1347">
<rect width="416" height="8" fill="white"/>
</clipPath>
</defs>
</svg>
