<svg width="15" height="16" viewBox="0 0 15 16" fill="none" xmlns="http://www.w3.org/2000/svg">
<path d="M7.5 1.5L6.5 0.5H5.5L4.5 1.5V8.5L2.5 6.5H1.5L0.5 7.5V8.5L2.5 10.5V11.5L6 15.5H9.5L10.5 14.5L11.5 15.5H12.5V13.5L13.5 12.5V11.5L14.5 10.5V6.5L13.5 5.5H12.5L11.5 4.5H7.5V1.5Z" fill="white"/>
<path fill-rule="evenodd" clip-rule="evenodd" d="M5 0H7V1H5V0ZM3 7H4V1H5V9H4V8H3V7ZM1 7V6H3V7H1ZM1 9H0V7H1V9ZM2 10H1V9H2V10ZM3 12H2V10H3V12ZM4 13H3V12H4V13ZM5 14H4V13H5V14ZM10 15V16H5V14H6V15H10ZM11 15H10V14H11V15ZM12 13V15H11V16H13V13H14V11H15V6H14V5H12V4H8V1H7V7H8V5H10V7H11V5H12V7H13V6H14V11H13V13H12ZM12 13H11V9H12V13ZM8 9H7V13H8V9ZM9 9H10V13H9V9Z" fill="black"/>
</svg>
