<svg width="16" height="16" viewBox="0 0 16 16" fill="none" xmlns="http://www.w3.org/2000/svg">
<rect width="16" height="16" fill="white"/>
<path fill-rule="evenodd" clip-rule="evenodd" d="M0 0H1V1H0V0ZM4 0H5V1H4V0ZM3 1H2V2H3V1ZM7 1H6V2H7V1ZM10 1H11V2H10V1ZM15 1H14V2H15V1ZM13 0H12V1H13V0ZM9 0H8V1H9V0ZM2 3H3V4H2V3ZM7 3H6V4H7V3ZM10 3H11V4H10V3ZM15 3H14V4H15V3ZM4 2H5V3H4V2ZM13 2H12V3H13V2ZM0 2H1V3H0V2ZM9 2H8V3H9V2ZM2 5H3V6H2V5ZM7 5H6V6H7V5ZM10 5H11V6H10V5ZM15 5H14V6H15V5ZM4 4H5V5H4V4ZM13 4H12V5H13V4ZM0 4H1V5H0V4ZM9 4H8V5H9V4ZM2 7H3V8H2V7ZM7 7H6V8H7V7ZM10 7H11V8H10V7ZM15 7H14V8H15V7ZM4 6H5V7H4V6ZM13 6H12V7H13V6ZM0 6H1V7H0V6ZM9 6H8V7H9V6ZM2 9H3V10H2V9ZM7 9H6V10H7V9ZM10 9H11V10H10V9ZM15 9H14V10H15V9ZM4 8H5V9H4V8ZM13 8H12V9H13V8ZM0 8H1V9H0V8ZM9 8H8V9H9V8ZM2 11H3V12H2V11ZM7 11H6V12H7V11ZM10 11H11V12H10V11ZM15 11H14V12H15V11ZM4 10H5V11H4V10ZM13 10H12V11H13V10ZM0 10H1V11H0V10ZM9 10H8V11H9V10ZM2 13H3V14H2V13ZM7 13H6V14H7V13ZM10 13H11V14H10V13ZM15 13H14V14H15V13ZM4 12H5V13H4V12ZM13 12H12V13H13V12ZM0 12H1V13H0V12ZM9 12H8V13H9V12ZM2 15H3V16H2V15ZM7 15H6V16H7V15ZM10 15H11V16H10V15ZM15 15H14V16H15V15ZM4 14H5V15H4V14ZM13 14H12V15H13V14ZM0 14H1V15H0V14ZM9 14H8V15H9V14Z" fill="black"/>
</svg>
