<svg width="16" height="16" viewBox="0 0 16 16" fill="none" xmlns="http://www.w3.org/2000/svg">
<rect width="16" height="16" fill="white"/>
<path fill-rule="evenodd" clip-rule="evenodd" d="M11 0H12V1H11V0ZM13 1V2H12V1H13ZM13 1V0H14V1H13ZM5 9H4V8H5V9ZM6 8V9H5V10H4V9H3V8H4V7H5V8H6ZM6 7V8H7V7H8V6H7V5H6V4H5V3H4V4H3V5H2V6H1V7H2V8H3V7H4V6H5V7H6ZM6 6H7V7H6V6ZM5 5H6V6H5V5ZM3 6V5H4V6H3ZM4 5H5V4H4V5ZM3 6V7H2V6H3ZM13 9H12V8H13V9ZM14 8V9H13V10H12V9H11V8H12V7H13V8H14ZM14 7V8H15V7H16V6H15V5H14V4H13V3H12V4H11V5H10V6H9V7H10V8H11V7H12V6H13V7H14ZM14 6V5H13V4H12V5H11V6H10V7H11V6H12V5H13V6H14ZM14 6V7H15V6H14ZM5 1H4V0H3V1H4V2H5V1ZM5 1V0H6V1H5ZM5 11H4V12H3V13H2V14H1V15H2V16H3V15H4V16H5V15H6V16H7V15H8V14H7V13H6V12H5V11ZM5 13V12H4V13H3V14H2V15H3V14H4V15H5V14H6V15H7V14H6V13H5ZM5 13V14H4V13H5ZM12 11H13V12H12V11ZM12 13V12H11V13H10V14H9V15H10V16H11V15H12V16H13V15H14V16H15V15H16V14H15V13H14V12H13V13H12ZM12 14V13H11V14H10V15H11V14H12ZM13 14V15H12V14H13ZM14 14H15V15H14V14ZM14 14H13V13H14V14Z" fill="black"/>
</svg>
