<svg width="16" height="16" viewBox="0 0 16 16" fill="none" xmlns="http://www.w3.org/2000/svg">
<rect width="16" height="16" fill="white"/>
<path fill-rule="evenodd" clip-rule="evenodd" d="M1 0H0V1H1V0ZM1 8H0V9H1V8ZM2 0H3V1H2V0ZM3 8H2V9H3V8ZM4 0H5V1H4V0ZM5 8H4V9H5V8ZM6 0H7V1H6V0ZM7 8H6V9H7V8ZM8 0H9V1H8V0ZM9 8H8V9H9V8ZM10 0H11V1H10V0ZM11 8H10V9H11V8ZM12 0H13V1H12V0ZM13 8H12V9H13V8ZM12 2H13V3H12V2ZM11 4V3H12V4H11ZM11 4H10V5H9V6H8V5H7V4H6V3H5V2H4V3H3V4H2V5H1V6H0V7H1V6H2V5H3V4H4V3H5V4H6V5H7V6H8V7H9V6H10V5H11V4ZM14 4H13V3H14V4ZM15 5H14V4H15V5ZM15 5H16V6H15V5ZM4 11H3V12H2V13H1V14H0V15H1V14H2V13H3V12H4V11ZM5 11V10H4V11H5ZM6 12H5V11H6V12ZM7 13H6V12H7V13ZM8 14H7V13H8V14ZM9 14V15H8V14H9ZM10 13V14H9V13H10ZM11 12V13H10V12H11ZM12 11V12H11V11H12ZM13 11H12V10H13V11ZM14 12V11H13V12H14ZM15 13V12H14V13H15ZM15 13H16V14H15V13ZM13 14H12V15H13V14ZM4 14H5V15H4V14ZM9 10H8V11H9V10ZM0 10H1V11H0V10ZM5 6H4V7H5V6ZM12 6H13V7H12V6ZM9 2H8V3H9V2ZM0 2H1V3H0V2ZM14 0H15V1H14V0ZM15 8H14V9H15V8Z" fill="black"/>
</svg>
