<svg width="16" height="16" viewBox="0 0 16 16" fill="none" xmlns="http://www.w3.org/2000/svg">
<rect width="16" height="16" fill="white"/>
<path fill-rule="evenodd" clip-rule="evenodd" d="M6 2H5V3H4V4H5V3H6V4H7V3H6V2ZM14 2H13V3H12V4H13V3H14V4H15V3H14V2ZM9 6H10V7H9V6ZM9 7V8H8V7H9ZM10 7H11V8H10V7ZM6 10H5V11H4V12H5V11H6V12H7V11H6V10ZM1 14H2V15H1V14ZM1 15V16H0V15H1ZM2 15H3V16H2V15ZM2 6H1V7H0V8H1V7H2V8H3V7H2V6ZM9 14H10V15H9V14ZM9 15V16H8V15H9ZM10 15H11V16H10V15ZM14 10H13V11H12V12H13V11H14V12H15V11H14V10Z" fill="black"/>
</svg>
