<svg width="16" height="16" viewBox="0 0 16 16" fill="none" xmlns="http://www.w3.org/2000/svg">
<g clip-path="url(#clip0_270_362)">
<rect width="16" height="16" fill="white"/>
<path fill-rule="evenodd" clip-rule="evenodd" d="M16 3H13V2H12V0H16V3ZM9 2H12V3H13V4V6H12V7H9V6H8V4V3H9V4H11V3H9V2ZM4 2V0H9V2H8V3H5V2H4ZM1 2H4V3H5V4V6H4V7H1V6H0V4V3H1V4H3V3H1V2ZM1 2H0V0H1V2ZM1 10V7H0V10H1ZM4 10H1V11H0V12V14H1V15H0V16H1V15H4V16H5V15H7V16H9V15H12V16H13V15H15V16H16V14H13V12V11H16V8V6H13V7H12V8V10H9V8V7H8V6H5V7H4V8V10ZM5 11H4V10H5V11ZM8 11H5V12V14H4V15H5V14H8V15H9V14H8V12V11ZM9 11H8V10H9V11ZM9 11H11V12H9V11ZM5 7H7V8H5V7ZM13 7H15V8H13V7ZM12 10H13V11H12V10ZM13 14V15H12V14H13ZM1 11V12H3V11H1Z" fill="black"/>
</g>
<defs>
<clipPath id="clip0_270_362">
<rect width="16" height="16" fill="white"/>
</clipPath>
</defs>
</svg>
